<svg id="Layer_1" data-name="Layer 1" xmlns="http://www.w3.org/2000/svg" width="336" height="585" viewBox="0 0 336 585"><defs><style>.cls-1{fill:#7c4b15;}.cls-2{fill:#fff;}.cls-3{fill:#9880b5;}.cls-4{fill:#e7cb79;}</style></defs><title>beer_cart</title><path class="cls-1" d="M143.91,20.74s16.75,65.9-5.59,126.22c-5.2,14-18,43.46-22.34,69.25-9,54.29,111.7,53.62,105-2.23-6.7-26.81-17.24-46.87-23.46-65.9-20.29-62.17-8.93-127.34-8.93-127.34Z"/><polygon class="cls-2" points="146.14 5.1 141.67 18.5 193.06 18.5 188.59 5.1 146.14 5.1"/><path class="cls-1" d="M116,216.21H221a0,0,0,0,1,0,0V435.67a12.87,12.87,0,0,1-12.87,12.87H128.86A12.87,12.87,0,0,1,116,435.67V216.21a0,0,0,0,1,0,0Z"/><rect class="cls-2" x="133.86" y="256.42" width="71.49" height="163.08" rx="3.61"/><path class="cls-3" d="M142.07,351.46v-14.9h8.44c3,0,4.36,1.92,4.36,3.8a3.34,3.34,0,0,1-2.55,3.42,3.56,3.56,0,0,1,2.84,3.64c0,2.16-1.45,4-4.38,4ZM151,341a1.22,1.22,0,0,0-1.32-1.23h-3.73v2.48h3.73A1.23,1.23,0,0,0,151,341Zm.29,5.85a1.34,1.34,0,0,0-1.48-1.34h-3.86v2.68h3.86A1.32,1.32,0,0,0,151.25,346.88Z"/><path class="cls-3" d="M157.26,351.46v-14.9h10.92v3.35H161.1v2.32H168v3.36H161.1v2.52h7.08v3.35Z"/><path class="cls-3" d="M170.42,351.46v-14.9h10.92v3.35h-7.08v2.32h6.92v3.36h-6.92v2.52h7.08v3.35Z"/><path class="cls-3" d="M191.88,351.46l-2.5-5h-2v5h-3.85v-14.9H191a4.8,4.8,0,0,1,5.18,5,4.52,4.52,0,0,1-3,4.47l3,5.47Zm.43-10a1.66,1.66,0,0,0-1.85-1.59h-3v3.2h3A1.66,1.66,0,0,0,192.31,341.5Z"/><path class="cls-4" d="M88.12,473.81,59.75,314c0-.14-3-16.8-16.33-26-8.79-6.09-20.39-7.8-34.5-5.08L6.08,268.13c18.31-3.51,33.8-1,46.05,7.6,18.16,12.7,22.12,34,22.41,35.77l28.34,159.69Z"/><path class="cls-4" d="M297,502H133.5C118.72,502,90,494.75,87,467.3L102,465.7c2.24,20.9,30.36,21.29,31.56,21.3H297Z"/><path class="cls-4" d="M285.16,456H96.38A13.42,13.42,0,0,1,83,444.56l-15.89-103A13.51,13.51,0,0,1,80.5,326H319.19A13.49,13.49,0,0,1,332,343.74l-34,103A13.47,13.47,0,0,1,285.16,456ZM97.67,441H284.08l33-100H82.25Z"/><circle class="cls-4" cx="124.5" cy="547.5" r="35.5"/><circle class="cls-4" cx="266.5" cy="547.5" r="35.5"/><rect class="cls-4" x="127" y="333.19" width="15" height="115.62" transform="translate(-39.85 16.07) rotate(-5.96)"/><rect class="cls-4" x="190" y="333.47" width="15" height="115.07" transform="translate(-13.47 7.1) rotate(-1.99)"/><rect class="cls-4" x="200.45" y="383.5" width="116.11" height="15" transform="matrix(0.14, -0.99, 0.99, 0.14, -164.38, 593.17)"/><rect class="cls-4" x="89.5" y="383" width="213" height="15"/></svg>