<svg id="Layer_1" data-name="Layer 1" xmlns="http://www.w3.org/2000/svg" width="414.87" height="528.2" viewBox="0 0 414.87 528.2"><defs><style>.cls-1{fill:#e0d9c6;}.cls-2{fill:#f9f1d8;}.cls-3{fill:#dad2b7;}.cls-4{fill:#e7cb79;}.cls-5{fill:#ddd2b8;opacity:0.47;}.cls-6{fill:#d3ab72;}</style></defs><title>beer_icon</title><path class="cls-1" d="M377.89,188.13h-81V486.64h81.79a26.59,26.59,0,0,0,26.59-26.59V215.49A27.36,27.36,0,0,0,377.89,188.13ZM380,444.32a15.57,15.57,0,0,1-15.58,15.58H299.87V217.83h64.52A15.58,15.58,0,0,1,380,233.41Z"/><path class="cls-2" d="M83.74,62.92c9.5-52.63,63-57,76.63-52.63v157l-133.46,4C9.54,147,2.69,102.23,30.11,78,54.13,56.78,77.07,62.24,83.74,62.92Z"/><path class="cls-3" d="M158.37,10.29s8.57,9.18,24.5,13c22.35,5.36,19.1,1.05,46,8,8.39,2.17,8.52,15.14,23,26,20,15,19.62.55,44,26,22.47,23.46,25.54,71.32,5,90a35.64,35.64,0,0,1-16,8l-125,1Z"/><rect class="cls-2" x="15.87" y="163.87" width="283" height="350" rx="21.09"/><rect class="cls-4" x="45.1" y="193.13" width="223" height="280.58"/><path class="cls-5" d="M159.74,163.87H276.12a24.75,24.75,0,0,1,24.75,24.75V488.25a25.62,25.62,0,0,1-25.62,25.62H159.74a0,0,0,0,1,0,0v-350a0,0,0,0,1,0,0Z"/><polygon class="cls-6" points="269.65 473.7 158.97 473.7 158.6 193.13 269.28 193.13 269.65 473.7"/></svg>