<svg id="Layer_1" data-name="Layer 1" xmlns="http://www.w3.org/2000/svg" width="435" height="387" viewBox="0 0 435 387"><defs><style>.cls-1{fill:#fff1cf;}.cls-2,.cls-3{fill:none;stroke-miterlimit:10;stroke-width:15px;}.cls-2{stroke:#594970;}.cls-3{stroke:#e7cb79;}.cls-4{fill:#e7cb79;}</style></defs><title>cart_new</title><circle class="cls-1" cx="273.04" cy="346" r="19"/><circle class="cls-1" cx="84.04" cy="346" r="19"/><circle class="cls-2" cx="273.04" cy="346" r="25.5"/><circle class="cls-2" cx="84.04" cy="346" r="25.5"/><path class="cls-3" d="M323,78.27,30.55,104.78C16,106,16,106,19.85,119.27l19.93,94.07A14.83,14.83,0,0,0,52.89,225l210.76,20.08a12.36,12.36,0,0,0,12.73-7.93L332,90.2C337,76,337,76,323,78.27Z"/><path class="cls-3" d="M328,81,243.53,232a5.35,5.35,0,0,1-9.25.16L151,95,292,83,210.35,229.08a7,7,0,0,1-12.06.25L116.84,97,253,86l-82,141.65a5.63,5.63,0,0,1-9.68.12L83,100,214,89,134.92,225.54a4.93,4.93,0,0,1-8.39.22L47,104,172,93l-71.3,128.15a8.15,8.15,0,0,1-8.2,4.12L87,224.53a8.48,8.48,0,0,1-6.1-4l-61-98.81C14,109,17,106,34,104L320,79C323.73,78.7,329.85,77.77,328,81Z"/><path class="cls-3" d="M320,123,294,81l-30,3-76,6L59.5,103l-32,52.24,9.75,46L94,99,260.29,84l43.82,80L290,201.24,225,88l-91,8L62.53,226l205.09,19.53c3.6.22,6.23-3.36,4.42-6.48L189,91"/><path class="cls-4" d="M277.46,306.08c16.19,0,29.12-8.94,33.4-23.38,3.12-10.51.93-24.05-9.47-34.58a6.62,6.62,0,0,1-1.5-7.08l76.2-195a6.59,6.59,0,0,1,4.79-4.06l41.76-8.79a6.61,6.61,0,0,0,5.1-7.83l-1.4-6.64a6.61,6.61,0,0,0-7.82-5.11l-52.33,11a6.61,6.61,0,0,0-4.79,4.06L275.65,248.12a6.61,6.61,0,0,0,2.94,8.18l2.6,1.44c10.27,5.71,12.07,14,10.5,19.28-1.84,6.2-7.8,9.57-16,9l-.69,0H48.65A6.61,6.61,0,0,0,42,292.6v6.8a6.61,6.61,0,0,0,6.61,6.6H274.72C275.64,306.06,276.56,306.08,277.46,306.08Z"/></svg>