<svg id="Layer_1" data-name="Layer 1" xmlns="http://www.w3.org/2000/svg" width="336" height="326" viewBox="0 0 336 326"><defs><style>.cls-1{fill:#3a2058;}</style></defs><title>dark_cart</title><path class="cls-1" d="M88.12,214.81,59.75,55c0-.14-3-16.8-16.33-26-8.79-6.09-20.39-7.8-34.5-5.08L6.08,9.13c18.31-3.51,33.8-1,46.05,7.6,18.16,12.7,22.12,34,22.41,35.77l28.34,159.69Z"/><path class="cls-1" d="M297,243H133.5C118.72,243,90,235.75,87,208.3L102,206.7c2.24,20.9,30.36,21.29,31.56,21.3H297Z"/><path class="cls-1" d="M80.5,74.5H319.19a6,6,0,0,1,5.7,7.89l-34,103a6,6,0,0,1-5.7,4.12H96.38a6,6,0,0,1-5.93-5.09l-15.88-103A6,6,0,0,1,80.5,74.5Z"/><path class="cls-1" d="M285.16,197H96.38A13.42,13.42,0,0,1,83,185.56l-15.89-103A13.51,13.51,0,0,1,80.5,67H319.19A13.49,13.49,0,0,1,332,84.74l-34,103A13.47,13.47,0,0,1,285.16,197ZM97.67,182H284.08l33-100H82.25Z"/><circle class="cls-1" cx="124.5" cy="288.5" r="35.5"/><path class="cls-1" d="M124.5,324.5a36,36,0,1,1,36-36A36,36,0,0,1,124.5,324.5Zm0-71a35,35,0,1,0,35,35A35,35,0,0,0,124.5,253.5Z"/><circle class="cls-1" cx="266.5" cy="288.5" r="35.5"/><path class="cls-1" d="M266.5,324.5a36,36,0,1,1,36-36A36,36,0,0,1,266.5,324.5Zm0-71a35,35,0,1,0,35,35A35,35,0,0,0,266.5,253.5Z"/></svg>