<svg id="Layer_1" data-name="Layer 1" xmlns="http://www.w3.org/2000/svg" width="298" height="300" viewBox="0 0 298 300"><defs><style>.cls-1{fill:#9175bc;}.cls-2{fill:#e7cb79;}.cls-3{fill:#3a2058;}</style></defs><title>edit</title><path class="cls-1" d="M237.2,293.5H25.8A20.33,20.33,0,0,1,5.5,273.2V59.8A20.33,20.33,0,0,1,25.8,39.5H172v17H25.8a3.3,3.3,0,0,0-3.3,3.3V273.2a3.3,3.3,0,0,0,3.3,3.3H237.2a3.3,3.3,0,0,0,3.3-3.3V122.43h17V273.2A20.33,20.33,0,0,1,237.2,293.5Z"/><path class="cls-2" d="M105.34,61.56H294.49a14.17,14.17,0,0,1,14.17,14.17v27.11A14.17,14.17,0,0,1,294.49,117H105.34a0,0,0,0,1,0,0V61.56a0,0,0,0,1,0,0Z" transform="translate(-2.5 172.52) rotate(-45)"/><path class="cls-2" d="M115.13,142.67,92.47,194.88a3.71,3.71,0,0,0,4.57,5l56.38-18.8a1,1,0,0,0,.4-1.72l-37-37A1,1,0,0,0,115.13,142.67Z"/><path class="cls-3" d="M95.72,187.39l9.08,9.89-9.13,3a3.06,3.06,0,0,1-3.77-4.12Z"/></svg>