<svg id="Layer_1" data-name="Layer 1" xmlns="http://www.w3.org/2000/svg" width="417" height="409" viewBox="0 0 417 409"><defs><style>.cls-1{fill:#e7cb79;}.cls-2{fill:#fff;}.cls-3{fill:#d3ab72;}</style></defs><title>home</title><rect class="cls-1" x="44" y="144" width="332" height="253" rx="14.72"/><path class="cls-2" d="M121.9,237H175.1A11.9,11.9,0,0,1,187,248.9V397a0,0,0,0,1,0,0H110a0,0,0,0,1,0,0V248.9A11.9,11.9,0,0,1,121.9,237Z"/><rect class="cls-2" x="234" y="237" width="82" height="82" rx="11.18"/><path class="cls-3" d="M200.65,10.52,14.48,147.73c-9.61,7.09-5,21.48,7.44,22.23.4,0,.8,0,1.2,0H395.88c.4,0,.8,0,1.2,0,12.4-.75,17.05-15.14,7.44-22.23L218.35,10.52A15.2,15.2,0,0,0,200.65,10.52Z"/></svg>