<svg id="Layer_1" data-name="Layer 1" xmlns="http://www.w3.org/2000/svg" width="227" height="356" viewBox="0 0 227 356"><defs><style>.cls-1{fill:#e7cb79;}.cls-2{fill:#fff;}.cls-3{fill:#9880b5;}</style></defs><title>rosette</title><circle class="cls-1" cx="114.5" cy="113.5" r="108.5"/><path class="cls-1" d="M81,202s-8,55-65,129l50-42,16,67c-3-94,32.19-144.37,32-143Z"/><path class="cls-1" d="M125,205s28,69,16,148l28-63,46,47c-54-92-66.81-146.37-67-145Z"/><circle class="cls-2" cx="114.5" cy="113.5" r="74.5"/><path class="cls-3" d="M49.43,129.66,50.71,93l27.81,1-.34,9.67-16.71-.58-.12,3.63,16.32.57-.34,9.67L61,116.36,60.53,130Z"/><path class="cls-3" d="M102.14,131.5l-4.65-11.72-4-.14-.4,11.54L82,130.79l1.28-36.66,19.56.69c8.58.3,13,6.17,12.75,13a11.81,11.81,0,0,1-7,10.87l6.2,13.21Zm2.16-24.08c.07-2-1.66-2.92-3.53-3L94,104.19l-.2,5.78,6.76.23C102.44,110.27,104.23,109.45,104.3,107.42Z"/><path class="cls-3" d="M119.24,132.09l1.28-36.65,27.8,1-.33,9.67-16.71-.58-.13,3.62,16.33.57-.34,9.68-16.33-.57-.14,4,16.71.58-.34,9.67Z"/><path class="cls-3" d="M152,133.24l1.28-36.66,27.81,1-.33,9.67L164,106.64l-.13,3.63,16.32.57-.33,9.67-16.33-.57-.14,4,16.71.59-.34,9.67Z"/></svg>