<svg id="Layer_1" data-name="Layer 1" xmlns="http://www.w3.org/2000/svg" width="336" height="326" viewBox="0 0 336 326"><defs><style>.cls-1{fill:none;}.cls-1,.cls-2,.cls-3{stroke:#e7cb79;stroke-miterlimit:10;}.cls-1,.cls-2{stroke-width:15px;}.cls-2,.cls-3{fill:#e7cb79;}</style></defs><title>yellow_cart</title><path class="cls-1" d="M325.2,16.5c-52-10-59.65,37.28-59.65,37.28L237.2,213.5"/><path class="cls-1" d="M238.2,207.5c-3,28-39,28-39,28H35.7"/><path class="cls-2" d="M252.2,74.5H13.51a6,6,0,0,0-5.7,7.89l34,103a6,6,0,0,0,5.7,4.12H236.32a6,6,0,0,0,5.93-5.09l15.88-103a6,6,0,0,0-5.93-6.92Z"/><circle class="cls-3" cx="208.2" cy="288.5" r="35.5"/><circle class="cls-3" cx="66.2" cy="288.5" r="35.5"/></svg>