<svg id="Layer_1" data-name="Layer 1" xmlns="http://www.w3.org/2000/svg" xmlns:xlink="http://www.w3.org/1999/xlink" width="375" height="114" viewBox="0 0 375 114"><defs><style>.cls-1{fill:url(#linear-gradient);}.cls-2{fill:url(#linear-gradient-2);}.cls-3{fill:url(#linear-gradient-3);}.cls-4{opacity:0.51;}.cls-5{fill:#3a2058;stroke:#fff;stroke-miterlimit:10;}</style><linearGradient id="linear-gradient" x1="262.24" y1="110.09" x2="262.24" y2="52.06" gradientUnits="userSpaceOnUse"><stop offset="0" stop-color="#e7cb79"/><stop offset="1" stop-color="#9175bc"/></linearGradient><linearGradient id="linear-gradient-2" x1="305.92" y1="110.09" x2="305.92" y2="52.06" xlink:href="#linear-gradient"/><linearGradient id="linear-gradient-3" x1="351.07" y1="110.09" x2="351.07" y2="52.06" xlink:href="#linear-gradient"/></defs><title>fooLOGO1</title><path class="cls-1" d="M242.84,110.09v-58h21.84c9.31,0,15.83,5.22,15.83,14.79a13.36,13.36,0,0,1-10.26,13.31c6.17,1,11.39,7.57,11.39,14.27,0,9.92-6.43,15.66-16.61,15.66Zm34.63-43.24c0-6.62-4.26-12.18-12.79-12.18H245.62V78.94h19.06C273.21,78.94,277.47,73.55,277.47,66.85Zm1.13,27.66c0-6.61-4.52-13-13.57-13H245.62v25.93H265C273.55,107.48,278.6,102.43,278.6,94.51Z"/><path class="cls-2" d="M328.54,110.09,322.1,94.51H289.73l-6.44,15.58h-3.21l24.18-58h3.31l24.19,58ZM305.92,55.28,290.78,91.9h30.27Z"/><path class="cls-3" d="M366.47,110.09,348.8,85H334.88v25.06H332.1v-58h20c9.4,0,17.14,5.82,17.14,16.44S361.51,85,352.11,85L370,110.09Zm-.26-41.59c0-8-5.57-13.83-14.1-13.83H334.88V82.42h17.23C360.64,82.42,366.21,76.5,366.21,68.5Z"/><g class="cls-4"><path class="cls-5" d="M131.51,57.63c0-31.57,24.48-53.14,56.21-53.14s56.21,21.57,56.21,53.14-24.49,53.13-56.21,53.13S131.51,89.2,131.51,57.63Zm80.85,0c0-14.33-9.7-25.72-24.64-25.72S163.08,43.3,163.08,57.63s9.7,25.72,24.64,25.72S212.36,72,212.36,57.63Z"/><path class="cls-5" d="M52.66,58.63c0-31.57,24.49-53.14,56.22-53.14s56.21,21.57,56.21,53.14-24.49,53.13-56.21,53.13S52.66,90.2,52.66,58.63Zm80.86,0c0-14.33-9.71-25.72-24.64-25.72S84.23,44.3,84.23,58.63s9.71,25.72,24.65,25.72S133.52,73,133.52,58.63Z"/><path class="cls-5" d="M5.16,108.17V8.93A1.74,1.74,0,0,1,6.9,7.19H81.35a1.74,1.74,0,0,1,1.74,1.74V32.56a1.73,1.73,0,0,1-1.74,1.73H38A1.74,1.74,0,0,0,36.27,36v6.69A1.74,1.74,0,0,0,38,44.46H80.27A1.74,1.74,0,0,1,82,46.2V69.83a1.73,1.73,0,0,1-1.74,1.73H38a1.74,1.74,0,0,0-1.74,1.74v34.87a1.74,1.74,0,0,1-1.74,1.74H6.9A1.74,1.74,0,0,1,5.16,108.17Z"/></g></svg>